<svg xmlns="http://www.w3.org/2000/svg" width="52" height="10" viewBox="0 0 52 10">
    <g fill="none" fill-rule="evenodd">
        <path fill="#232329" d="M-167-2491h1528v4111H-167z"/>
        <path fill="#03C75A" d="M-45-23h1280v55H-45z"/>
        <path fill="#FFF" fill-rule="nonzero" d="M14.966.005h3.522L22.4 9.997h-3.326L18.6 8.675h-3.75l-.473 1.322h-3.323L14.966.005zm.655 6.27h2.23l-1.113-3.12-1.117 3.12zm20.618-.072V7.55h4.693V10h-7.871V.005h7.774v2.449h-4.596v1.348h4.548v2.401h-4.548zm-9.88.373l2.35-6.57h3.325L28.12 10h-3.522L20.686.005h3.326l2.347 6.57zM6.797 5.354V.005h3.228V10h-3.08L3.228 4.651V10H0V.005h3.08l3.717 5.35zm42.669 1.217L52 9.997h-3.326l-1.906-2.792h-1.137v2.787H42.5V0h4.217c1.497 0 2.59.264 3.432.793.908.58 1.367 1.515 1.367 2.777 0 1.335-.591 2.387-1.75 2.874l-.301.127zm-2.17-1.912a1.057 1.057 0 0 0 0-2.115h-1.715v2.115h1.715z"/>
    </g>
</svg>
